<svg xmlns="http://www.w3.org/2000/svg" version="1.1" xmlns:xlink="http://www.w3.org/1999/xlink" xmlns:svgjs="http://svgjs.dev/svgjs" width="2000" height="398" viewBox="0 0 2000 398"><g transform="matrix(1,0,0,1,-1.2121212121213603,2.9519925795034965)"><svg viewBox="0 0 396 79" data-background-color="#ffffff" preserveAspectRatio="xMidYMid meet" height="398" width="2000" xmlns="http://www.w3.org/2000/svg" xmlns:xlink="http://www.w3.org/1999/xlink"><g id="tight-bounds" transform="matrix(1,0,0,1,0.24000000000003752,0.012293567017252371)"><svg viewBox="0 0 395.5199999999999 78.97541286596552" height="78.97541286596552" width="395.5199999999999"><g><svg viewBox="0 0 516.1979578273433 103.07177093442229" height="78.97541286596552" width="395.5199999999999"><g transform="matrix(1,0,0,1,120.67795782734339,14.245085563295703)"><svg viewBox="0 0 395.52 74.58159980783088" height="74.58159980783088" width="395.52"><g id="textblocktransform"><svg viewBox="0 0 395.52 74.58159980783088" height="74.58159980783088" width="395.52" id="textblock"><g><svg viewBox="0 0 395.52 74.58159980783088" height="74.58159980783088" width="395.52"><g transform="matrix(1,0,0,1,0,0)"><svg width="395.52" viewBox="1.5 -38.7 208.13 39.25" height="74.58159980783088" data-palette-color="#ffffff"><path d="M14.65 0.55L14.65 0.55Q9.1 0.55 5.3-4.1 1.5-8.75 1.5-15.5L1.5-15.5Q1.5-23.75 6.08-29.4 10.65-35.05 17.3-35.05L17.3-35.05Q19.9-35.05 22.13-34.52 24.35-34 25.3-33.45L25.3-33.45 26.2-32.9 22.8-25.95Q21.65-26.95 19.55-27.83 17.45-28.7 15.75-28.7L15.75-28.7Q12.3-28.7 10.23-25.85 8.15-23 8.15-17.73 8.15-12.45 10.3-9.08 12.45-5.7 16.15-5.7L16.15-5.7Q18.55-5.7 20.5-7.2 22.45-8.7 23.25-11.2L23.25-11.2 27.4-8.8Q25.75-4.4 22.35-1.93 18.95 0.55 14.65 0.55ZM30.45-37.45L37.3-38.7 36.65-13 37.2-1.25 30.45 0 31.05-12.15 30.45-37.45ZM52.09-5.1L52.09-5.1Q53.55-5.1 55.15-5.85 56.75-6.6 57.64-7.35L57.64-7.35 58.55-8.1 60.84-5.3Q60.34-4.45 59.3-3.35 58.25-2.25 57.17-1.48 56.09-0.7 54.32-0.08 52.55 0.55 50.65 0.55L50.65 0.55Q46.59 0.55 44.05-2.53 41.49-5.6 41.49-10.45L41.49-10.45Q41.49-16.55 45.05-21.15 48.59-25.75 53.34-25.75L53.34-25.75Q57-25.75 59.02-23.7 61.05-21.65 61.05-17.95L61.05-17.95Q61.05-15.75 60.3-12.95L60.3-12.95 59.3-11.9 46.8-10.75Q47.65-5.1 52.09-5.1ZM52.09-20.6L52.09-20.6Q49.9-20.6 48.4-18.82 46.9-17.05 46.65-14.3L46.65-14.3 55.15-15.35Q55.3-16.5 55.3-17.25L55.3-17.25Q55.3-20.6 52.09-20.6ZM70.39 0Q67.44 0 65.57-1.88 63.69-3.75 63.69-6.93 63.69-10.1 66.59-12.43 69.49-14.75 73.64-14.75L73.64-14.75 77.04-14.75 77.04-15.6Q77.04-18.05 76.04-18.95 75.04-19.85 72.29-19.85L72.29-19.85Q71.14-19.85 69.57-19.38 67.99-18.9 66.04-17.9L66.04-17.9 64.59-21.85Q66.74-23.35 69.82-24.55 72.89-25.75 74.89-25.75L74.89-25.75Q82.74-25.75 82.74-18.15L82.74-18.15 82.74-8.35Q82.74-5.55 84.49-2.1L84.49-2.1 79.19 0.15Q77.94-2.25 77.34-4.15L77.34-4.15Q74.59 0 70.39 0L70.39 0ZM72.49-5.1L72.49-5.1Q74.49-5.1 77.04-7.15L77.04-7.15 77.04-10.5Q74.39-11.1 72.74-11.1L72.74-11.1Q69.59-11.1 69.59-8.3L69.59-8.3Q69.59-6.85 70.39-5.98 71.19-5.1 72.49-5.1ZM88.29-24.15L88.29-24.15 94.34-25.45Q94.79-21.6 94.94-18.15L94.94-18.15Q99.49-25.2 103.49-25.2L103.49-25.2 102.94-17.4Q100.04-17.4 98.37-16.88 96.69-16.35 94.94-14.8L94.94-14.8 94.94-13 95.49-1.25 88.79 0 89.39-12.15Q89.19-18.85 88.29-24.15ZM112.54 0.3L113.39-5.1 129.49-28.9 113.19-27.8 114.39-34.7 125.79-34.15 137.24-34.75 136.49-29.4 120.34-5.5 137.89-6.6 136.89 0.3 124.84-0.25 112.54 0.3ZM139.93-10.45Q139.93-16.85 143.38-21.3 146.83-25.75 151.46-25.75 156.08-25.75 158.66-22.75 161.23-19.75 161.23-14.8L161.23-14.8Q161.23-8.2 157.91-3.83 154.58 0.55 149.53 0.55L149.53 0.55Q145.38 0.55 142.66-2.58 139.93-5.7 139.93-10.45L139.93-10.45ZM155.63-12.2L155.63-12.2Q155.63-19.45 150.68-19.45L150.68-19.45Q145.53-19.45 145.53-12.65L145.53-12.65Q145.53-9.1 146.98-7.1 148.43-5.1 150.81-5.1 153.18-5.1 154.41-6.93 155.63-8.75 155.63-12.2ZM180.03-12.65Q180.03-16.1 179.43-17.25 178.83-18.4 176.63-18.4 174.43-18.4 171.63-16.65L171.63-16.65 171.63-13 172.18-1.25 165.48 0 166.08-12.15Q165.88-18.85 164.98-24.15L164.98-24.15 171.03-25.45Q171.38-22.55 171.53-19.8L171.53-19.8Q172.28-20.8 173.23-21.78 174.18-22.75 176.23-23.98 178.28-25.2 180.56-25.2 182.83-25.2 184.38-23.43 185.93-21.65 185.93-18.6L185.93-18.6 185.63-13 186.18-1 179.43 0.25 180.03-12.65ZM200.68-5.1L200.68-5.1Q202.13-5.1 203.73-5.85 205.33-6.6 206.23-7.35L206.23-7.35 207.13-8.1 209.43-5.3Q208.93-4.45 207.88-3.35 206.83-2.25 205.75-1.48 204.68-0.7 202.9-0.08 201.13 0.55 199.23 0.55L199.23 0.55Q195.18 0.55 192.63-2.53 190.08-5.6 190.08-10.45L190.08-10.45Q190.08-16.55 193.63-21.15 197.18-25.75 201.93-25.75L201.93-25.75Q205.58-25.75 207.6-23.7 209.63-21.65 209.63-17.95L209.63-17.95Q209.63-15.75 208.88-12.95L208.88-12.95 207.88-11.9 195.38-10.75Q196.23-5.1 200.68-5.1ZM200.68-20.6L200.68-20.6Q198.48-20.6 196.98-18.82 195.48-17.05 195.23-14.3L195.23-14.3 203.73-15.35Q203.88-16.5 203.88-17.25L203.88-17.25Q203.88-20.6 200.68-20.6Z" opacity="1" transform="matrix(1,0,0,1,0,0)" fill="#ffffff" class="wordmark-text-0" data-fill-palette-color="primary" id="text-0"></path></svg></g></svg></g></svg></g></svg></g><g><svg viewBox="0 0 103.07103207110991 103.07177093442229" height="103.07177093442229" width="103.07103207110991"><g><svg xmlns:dc="http://purl.org/dc/elements/1.1/" xmlns:cc="http://creativecommons.org/ns#" xmlns:rdf="http://www.w3.org/1999/02/22-rdf-syntax-ns#" xmlns:svg="http://www.w3.org/2000/svg" xmlns="http://www.w3.org/2000/svg" version="1.1" x="0" y="0" viewBox="5.000093158471819 4.999447995345504 89.99990684152819 90.0005520046545" height="103.07177093442229" width="103.07103207110991" class="icon-icon-0" data-fill-palette-color="accent" id="icon-0"><path d="M69.31 5.001A2.83 2.83 0 0 0 66.916 6.425L33.262 64.775C34.165 65.024 35.052 65.39 35.902 65.882S37.512 66.958 38.178 67.618L71.83 9.265A2.833 2.833 0 0 0 70.793 5.384 2.84 2.84 0 0 0 69.31 5M68.308 6.64H68.31A0.7 0.7 0 0 1 68.964 6.978 0.7 0.7 0 0 1 68.977 7.701L49.18 42.026A0.71 0.71 0 1 1 47.95 41.316L67.747 6.992A0.7 0.7 0 0 1 68.308 6.64M49.758 50.788A7080 7080 0 0 0 45.098 58.87H86.508L86.322 60.21H44.322C43.947 60.86 43.574 61.512 43.199 62.163A28.4 28.4 0 0 0 46.929 65.989C53.183 71.427 61.968 73.686 70.11 72.206 76.717 71.057 82.77 67.34 86.972 62.139L87.24 60.21H87.238L87.423 58.87H87.425L87.878 55.588H91.71C87.377 66.04 77.084 73.393 65.074 73.393 56.102 73.393 48.086 69.29 42.799 62.856L41.53 65.057C47.254 71.63 55.68 75.784 65.074 75.784 79.216 75.784 91.162 66.37 95 53.462H88.173L88.543 50.788zM35.146 53.462A31 31 0 0 0 36.197 56.428L37.91 53.462zM29.437 65.674A11.16 11.16 0 0 0 22.16 68.506L40.504 79.108A11.2 11.2 0 0 0 39.207 71.194 11.1 11.1 0 0 0 35.158 67.168 11.1 11.1 0 0 0 29.438 65.674M30.247 66.797H30.25A7.8 7.8 0 0 1 32.662 67.17C30.12 67.058 27.852 67.97 25.795 69.49L24.377 68.67C25.937 67.52 28.129 66.786 30.248 66.797M44.075 68.645L46.17 83.795C47.897 83.574 49.61 83.251 51.328 82.954 52.093 82.728 53.139 82.552 53.7 83.276 54.506 85.908 54.824 88.694 54.75 91.45 54.733 92.668 54.528 94.053 53.732 95H77.56C80.69 95 82.78 92.45 83.208 89.346L86.072 68.655C85.102 69.505 84.082 70.295 83.017 71.022 74.92 76.634 64.117 78.029 54.8 74.848 50.844 73.532 47.2 71.388 44.074 68.645M21.568 69.639C20.814 72.471 14.41 84.874 34.683 92.34 44.348 95.9 48.727 95.157 52.205 94.25 54.197 92.896 52.408 84.426 52.408 84.426 48.928 85.036 45.829 85.6 43.494 85.688A50 50 0 0 0 40.582 83.508C40.437 84.314 40.498 84.951 40.736 85.448 38.926 84.904 38.44 83.407 39.914 80.24zM19.098 73.608C16.424 76.517 11.495 83.894 12.744 88.67 14.023 93.558 23.192 95.652 38.988 94.414 37.983 94.147 35.358 93.624 34.223 93.285 15.575 85.442 18.319 76.943 19.098 73.608M13.85 79.563C7.565 82.565 4.264 87.557 5.139 90.125 6.44 93.951 13.647 92.906 15.562 93.085 11.313 92.367 9.002 85.111 13.85 79.562" display="inline" overflow="visible" visibility="visible" fill="#f2c72a" fill-opacity="1" fill-rule="nonzero" stroke="none" marker="none" color="#f2c72a" enable-background="accumulate" data-fill-palette-color="accent"></path></svg></g></svg></g></svg></g><defs></defs></svg><rect width="395.5199999999999" height="78.97541286596552" fill="none" stroke="none" visibility="hidden"></rect></g></svg></g></svg>